<svg width="45" height="45" viewBox="0 0 45 45" fill="none" xmlns="http://www.w3.org/2000/svg">
<path d="M16.1986 22.6023H29.1217M16.1986 28.1408H29.1217M32.814 16.1408H12.5063C12.0167 16.1408 11.5471 16.3353 11.2009 16.6815C10.8547 17.0277 10.6602 17.4973 10.6602 17.9869V32.7561C10.6602 33.2458 10.8547 33.7153 11.2009 34.0616C11.5471 34.4078 12.0167 34.6023 12.5063 34.6023H32.814C33.3036 34.6023 33.7732 34.4078 34.1194 34.0616C34.4657 33.7153 34.6602 33.2458 34.6602 32.7561V17.9869C34.6602 17.4973 34.4657 17.0277 34.1194 16.6815C33.7732 16.3353 33.3036 16.1408 32.814 16.1408ZM18.9678 10.6023H26.3525C26.8421 10.6023 27.3117 10.7968 27.6579 11.143C28.0041 11.4892 28.1986 11.9588 28.1986 12.4484V16.1408H17.1217V12.4484C17.1217 11.9588 17.3162 11.4892 17.6624 11.143C18.0086 10.7968 18.4782 10.6023 18.9678 10.6023Z" stroke="black" stroke-linecap="round" stroke-linejoin="round"/>
</svg>
