<svg width="19" height="19" viewBox="0 0 19 19" fill="none" xmlns="http://www.w3.org/2000/svg">
<path d="M14.4609 5.12927H12.2109V4.37927C12.2109 3.78254 11.9739 3.21024 11.5519 2.78828C11.13 2.36633 10.5577 2.12927 9.96094 2.12927H8.46094C7.8642 2.12927 7.2919 2.36633 6.86995 2.78828C6.44799 3.21024 6.21094 3.78254 6.21094 4.37927V5.12927H3.96094C3.3642 5.12927 2.7919 5.36633 2.36995 5.78828C1.94799 6.21024 1.71094 6.78254 1.71094 7.37927V14.1293C1.71094 14.726 1.94799 15.2983 2.36995 15.7203C2.7919 16.1422 3.3642 16.3793 3.96094 16.3793H14.4609C15.0577 16.3793 15.63 16.1422 16.0519 15.7203C16.4739 15.2983 16.7109 14.726 16.7109 14.1293V7.37927C16.7109 6.78254 16.4739 6.21024 16.0519 5.78828C15.63 5.36633 15.0577 5.12927 14.4609 5.12927ZM7.71094 4.37927C7.71094 4.18036 7.78996 3.98959 7.93061 3.84894C8.07126 3.70829 8.26203 3.62927 8.46094 3.62927H9.96094C10.1599 3.62927 10.3506 3.70829 10.4913 3.84894C10.6319 3.98959 10.7109 4.18036 10.7109 4.37927V5.12927H7.71094V4.37927ZM15.2109 14.1293C15.2109 14.3282 15.1319 14.519 14.9913 14.6596C14.8506 14.8003 14.6599 14.8793 14.4609 14.8793H3.96094C3.76203 14.8793 3.57126 14.8003 3.43061 14.6596C3.28996 14.519 3.21094 14.3282 3.21094 14.1293V10.0043C5.12058 10.7621 7.15644 11.1514 9.21094 11.1518C11.2653 11.1496 13.3008 10.7603 15.2109 10.0043V14.1293ZM15.2109 8.36177C13.3196 9.19216 11.2765 9.62092 9.21094 9.62092C7.14535 9.62092 5.10226 9.19216 3.21094 8.36177V7.37927C3.21094 7.18036 3.28996 6.98959 3.43061 6.84894C3.57126 6.70829 3.76203 6.62927 3.96094 6.62927H14.4609C14.6599 6.62927 14.8506 6.70829 14.9913 6.84894C15.1319 6.98959 15.2109 7.18036 15.2109 7.37927V8.36177Z" fill="black"/>
</svg>
