<svg width="25" height="25" viewBox="0 0 25 25" fill="none" xmlns="http://www.w3.org/2000/svg">
<path d="M18.0291 19.6608C16.27 20.7765 14.2292 21.3673 12.1461 21.3638C6.75412 21.3638 2.26812 17.4838 1.32812 12.3638C1.75904 10.0356 2.9297 7.90853 4.66612 6.29881L1.54013 3.17181L2.95413 1.75781L22.7531 21.5558L21.3391 22.9708L18.0291 19.6608ZM6.08212 7.71381C4.72302 8.94947 3.77602 10.5726 3.36912 12.3638C3.68142 13.7303 4.30839 15.005 5.20013 16.0864C6.09187 17.1679 7.22375 18.0262 8.50568 18.5931C9.7876 19.16 11.1842 19.4199 12.5842 19.3519C13.9843 19.284 15.3491 18.8902 16.5701 18.2018L14.5421 16.1738C13.6788 16.7176 12.6563 16.9519 11.6424 16.8383C10.6284 16.7246 9.68317 16.2697 8.96169 15.5482C8.24022 14.8268 7.78535 13.8815 7.67169 12.8676C7.55802 11.8536 7.79231 10.8311 8.33612 9.96781L6.08212 7.71381ZM13.0601 14.6918L9.81812 11.4508C9.64019 11.9037 9.59831 12.3988 9.69763 12.8752C9.79695 13.3515 10.0331 13.7886 10.3772 14.1327C10.7213 14.4768 11.1584 14.713 11.6348 14.8123C12.1112 14.9116 12.6072 14.8697 13.0601 14.6918ZM20.9521 16.9568L19.5211 15.5258C20.1911 14.5737 20.6678 13.4994 20.9241 12.3638C20.6524 11.1734 20.1414 10.0507 19.4222 9.06401C18.703 8.07728 17.7907 7.24711 16.7406 6.62397C15.6906 6.00084 14.5248 5.59775 13.3141 5.43922C12.1035 5.2807 10.8732 5.37004 9.69812 5.70181L8.12012 4.12381C9.36712 3.63381 10.7261 3.36381 12.1461 3.36381C17.5381 3.36381 22.0241 7.24381 22.9651 12.3638C22.6588 14.0298 21.969 15.602 20.9521 16.9568ZM11.8691 7.87281C11.9605 7.86681 12.0528 7.86381 12.1461 7.86381C12.7605 7.86373 13.3685 7.98947 13.9324 8.23329C14.4964 8.4771 15.0045 8.83382 15.4253 9.28147C15.8462 9.72912 16.1709 10.2582 16.3795 10.8361C16.5881 11.4141 16.6761 12.0286 16.6381 12.6418L11.8691 7.87281Z" fill="black"/>
</svg>
