<svg width="25" height="25" viewBox="0 0 25 25" fill="none" xmlns="http://www.w3.org/2000/svg">
<path d="M15.1465 12.3638C15.1465 13.1594 14.8304 13.9225 14.2678 14.4851C13.7052 15.0477 12.9421 15.3638 12.1465 15.3638C11.3508 15.3638 10.5878 15.0477 10.0252 14.4851C9.46255 13.9225 9.14648 13.1594 9.14648 12.3638C9.14648 11.5681 9.46255 10.8051 10.0252 10.2424C10.5878 9.67984 11.3508 9.36377 12.1465 9.36377C12.9421 9.36377 13.7052 9.67984 14.2678 10.2424C14.8304 10.8051 15.1465 11.5681 15.1465 12.3638Z" stroke="black" stroke-width="2" stroke-linecap="round" stroke-linejoin="round"/>
<path d="M2.60352 12.3638C3.87752 8.30677 7.66852 5.36377 12.1455 5.36377C16.6235 5.36377 20.4135 8.30677 21.6875 12.3638C20.4135 16.4208 16.6235 19.3638 12.1455 19.3638C7.66752 19.3638 3.87752 16.4208 2.60352 12.3638Z" stroke="black" stroke-width="2" stroke-linecap="round" stroke-linejoin="round"/>
</svg>
