<svg width="19" height="19" viewBox="0 0 19 19" fill="none" xmlns="http://www.w3.org/2000/svg">
<path d="M9.21094 6.81616C8.69344 6.81616 8.27344 7.23616 8.27344 7.75366V7.83391C8.27344 7.9831 8.21417 8.12617 8.10868 8.23166C8.0032 8.33715 7.86012 8.39641 7.71094 8.39641C7.56175 8.39641 7.41868 8.33715 7.31319 8.23166C7.2077 8.12617 7.14844 7.9831 7.14844 7.83391V7.75366C7.14844 7.20665 7.36574 6.68205 7.75253 6.29525C8.13932 5.90846 8.66393 5.69116 9.21094 5.69116H9.29794C9.70142 5.69135 10.0952 5.81507 10.4262 6.0457C10.7573 6.27633 11.0098 6.60281 11.1498 6.98122C11.2898 7.35963 11.3106 7.77184 11.2093 8.16241C11.1081 8.55297 10.8896 8.90317 10.5834 9.16591L10.0059 9.66091C9.93348 9.72381 9.87527 9.80143 9.83518 9.88859C9.79509 9.97576 9.77404 10.0705 9.77344 10.1664V10.5662C9.77344 10.7153 9.71417 10.8584 9.60868 10.9639C9.5032 11.0694 9.36012 11.1287 9.21094 11.1287C9.06175 11.1287 8.91868 11.0694 8.81319 10.9639C8.7077 10.8584 8.64844 10.7153 8.64844 10.5662V10.1664C8.64844 9.64366 8.87644 9.14716 9.27319 8.80741L9.85144 8.31241C9.98338 8.19932 10.0775 8.04852 10.1212 7.88032C10.1648 7.71211 10.1559 7.53457 10.0956 7.37158C10.0353 7.2086 9.92655 7.068 9.78394 6.96869C9.64132 6.86939 9.47172 6.81616 9.29794 6.81616H9.21094ZM9.21094 13.0037C9.40985 13.0037 9.60062 12.9246 9.74127 12.784C9.88192 12.6433 9.96094 12.4526 9.96094 12.2537C9.96094 12.0547 9.88192 11.864 9.74127 11.7233C9.60062 11.5827 9.40985 11.5037 9.21094 11.5037C9.01202 11.5037 8.82126 11.5827 8.68061 11.7233C8.53996 11.864 8.46094 12.0547 8.46094 12.2537C8.46094 12.4526 8.53996 12.6433 8.68061 12.784C8.82126 12.9246 9.01202 13.0037 9.21094 13.0037Z" fill="black"/>
<path d="M2.64844 9.25366C2.64844 7.51318 3.33984 5.84398 4.57055 4.61327C5.80126 3.38257 7.47045 2.69116 9.21094 2.69116C10.9514 2.69116 12.6206 3.38257 13.8513 4.61327C15.082 5.84398 15.7734 7.51318 15.7734 9.25366C15.7734 10.9941 15.082 12.6633 13.8513 13.8941C12.6206 15.1248 10.9514 15.8162 9.21094 15.8162C7.47045 15.8162 5.80126 15.1248 4.57055 13.8941C3.33984 12.6633 2.64844 10.9941 2.64844 9.25366ZM9.21094 3.81616C8.49687 3.81616 7.7898 3.95681 7.1301 4.23007C6.47039 4.50333 5.87096 4.90385 5.36604 5.40877C4.86113 5.91369 4.4606 6.51311 4.18734 7.17282C3.91408 7.83253 3.77344 8.5396 3.77344 9.25366C3.77344 9.96772 3.91408 10.6748 4.18734 11.3345C4.4606 11.9942 4.86113 12.5936 5.36604 13.0986C5.87096 13.6035 6.47039 14.004 7.1301 14.2773C7.7898 14.5505 8.49687 14.6912 9.21094 14.6912C10.6531 14.6912 12.0361 14.1183 13.0558 13.0986C14.0756 12.0788 14.6484 10.6958 14.6484 9.25366C14.6484 7.81155 14.0756 6.4285 13.0558 5.40877C12.0361 4.38904 10.6531 3.81616 9.21094 3.81616Z" fill="black"/>
</svg>
