<svg width="19" height="19" viewBox="0 0 19 19" fill="none" xmlns="http://www.w3.org/2000/svg">
<path d="M2.83594 3.56555C2.83594 3.51582 2.85569 3.46813 2.89086 3.43297C2.92602 3.39781 2.97371 3.37805 3.02344 3.37805H13.1484C13.1982 3.37805 13.2459 3.39781 13.281 3.43297C13.3162 3.46813 13.3359 3.51582 13.3359 3.56555V11.0656C13.3359 11.2147 13.3952 11.3578 13.5007 11.4633C13.6062 11.5688 13.7493 11.6281 13.8984 11.6281C14.0476 11.6281 14.1907 11.5688 14.2962 11.4633C14.4017 11.3578 14.4609 11.2147 14.4609 11.0656V3.56555C14.4609 3.21746 14.3227 2.88362 14.0765 2.63747C13.8304 2.39133 13.4965 2.25305 13.1484 2.25305H3.02344C2.67534 2.25305 2.3415 2.39133 2.09536 2.63747C1.84922 2.88362 1.71094 3.21746 1.71094 3.56555V15.9406C1.71094 16.6651 2.29894 17.2531 3.02344 17.2531H8.27344C8.42262 17.2531 8.5657 17.1938 8.67118 17.0883C8.77667 16.9828 8.83594 16.8397 8.83594 16.6906C8.83594 16.5414 8.77667 16.3983 8.67118 16.2928C8.5657 16.1873 8.42262 16.1281 8.27344 16.1281H3.02344C2.97371 16.1281 2.92602 16.1083 2.89086 16.0731C2.85569 16.038 2.83594 15.9903 2.83594 15.9406V3.56555Z" fill="black"/>
<path d="M4.89844 6.00305C4.74925 6.00305 4.60618 6.06231 4.50069 6.1678C4.3952 6.27329 4.33594 6.41637 4.33594 6.56555C4.33594 6.71474 4.3952 6.85781 4.50069 6.9633C4.60618 7.06879 4.74925 7.12805 4.89844 7.12805H11.2734C11.4226 7.12805 11.5657 7.06879 11.6712 6.9633C11.7767 6.85781 11.8359 6.71474 11.8359 6.56555C11.8359 6.41637 11.7767 6.27329 11.6712 6.1678C11.5657 6.06231 11.4226 6.00305 11.2734 6.00305H4.89844ZM4.33594 9.56555C4.33594 9.41637 4.3952 9.27329 4.50069 9.1678C4.60618 9.06232 4.74925 9.00305 4.89844 9.00305H8.27344C8.42262 9.00305 8.5657 9.06232 8.67118 9.1678C8.77667 9.27329 8.83594 9.41637 8.83594 9.56555C8.83594 9.71474 8.77667 9.85781 8.67118 9.9633C8.5657 10.0688 8.42262 10.1281 8.27344 10.1281H4.89844C4.74925 10.1281 4.60618 10.0688 4.50069 9.9633C4.3952 9.85781 4.33594 9.71474 4.33594 9.56555ZM16.5459 12.9631C16.6012 12.9116 16.6455 12.8495 16.6763 12.7805C16.707 12.7115 16.7235 12.637 16.7249 12.5614C16.7262 12.4859 16.7123 12.4109 16.684 12.3409C16.6557 12.2708 16.6136 12.2072 16.5602 12.1538C16.5068 12.1004 16.4432 12.0583 16.3731 12.03C16.3031 12.0017 16.2281 11.9878 16.1525 11.9891C16.077 11.9904 16.0025 12.007 15.9335 12.0377C15.8645 12.0685 15.8024 12.1128 15.7509 12.1681L12.0234 15.8956L10.5459 14.4181C10.4944 14.3628 10.4323 14.3185 10.3633 14.2877C10.2943 14.257 10.2199 14.2404 10.1443 14.2391C10.0688 14.2378 9.99378 14.2517 9.92374 14.28C9.8537 14.3083 9.79007 14.3504 9.73666 14.4038C9.68325 14.4572 9.64114 14.5208 9.61285 14.5909C9.58455 14.6609 9.57066 14.7359 9.57199 14.8114C9.57333 14.887 9.58986 14.9615 9.6206 15.0305C9.65135 15.0995 9.69567 15.1616 9.75094 15.2131L11.6259 17.0881C11.7314 17.1934 11.8744 17.2526 12.0234 17.2526C12.1725 17.2526 12.3155 17.1934 12.4209 17.0881L16.5459 12.9631Z" fill="black"/>
</svg>
