<svg width="25" height="24" viewBox="0 0 25 24" fill="none" xmlns="http://www.w3.org/2000/svg">
<g clip-path="url(#clip0_284_5645)">
<path d="M22.7109 20.9998C22.7109 20.9998 24.2109 20.9998 24.2109 19.4998C24.2109 17.9998 22.7109 13.4998 16.7109 13.4998C10.7109 13.4998 9.21094 17.9998 9.21094 19.4998C9.21094 20.9998 10.7109 20.9998 10.7109 20.9998H22.7109ZM10.7439 19.4998L10.7109 19.4938C10.7124 19.0978 10.9614 17.9488 11.8509 16.9138C12.6789 15.9433 14.1339 14.9998 16.7109 14.9998C19.2864 14.9998 20.7414 15.9448 21.5709 16.9138C22.4604 17.9488 22.7079 19.0993 22.7109 19.4938L22.6989 19.4968L22.6779 19.4998H10.7439ZM16.7109 10.4998C17.5066 10.4998 18.2696 10.1837 18.8323 9.62108C19.3949 9.05847 19.7109 8.29541 19.7109 7.49976C19.7109 6.70411 19.3949 5.94104 18.8323 5.37844C18.2696 4.81583 17.5066 4.49976 16.7109 4.49976C15.9153 4.49976 15.1522 4.81583 14.5896 5.37844C14.027 5.94104 13.7109 6.70411 13.7109 7.49976C13.7109 8.29541 14.027 9.05847 14.5896 9.62108C15.1522 10.1837 15.9153 10.4998 16.7109 10.4998ZM21.2109 7.49976C21.2109 8.0907 21.0945 8.67587 20.8684 9.22183C20.6423 9.7678 20.3108 10.2639 19.8929 10.6817C19.4751 11.0996 18.979 11.4311 18.433 11.6572C17.887 11.8834 17.3019 11.9998 16.7109 11.9998C16.12 11.9998 15.5348 11.8834 14.9889 11.6572C14.4429 11.4311 13.9468 11.0996 13.529 10.6817C13.1111 10.2639 12.7796 9.7678 12.5535 9.22183C12.3273 8.67587 12.2109 8.0907 12.2109 7.49976C12.2109 6.30628 12.685 5.16169 13.529 4.31778C14.3729 3.47386 15.5175 2.99976 16.7109 2.99976C17.9044 2.99976 19.049 3.47386 19.8929 4.31778C20.7368 5.16169 21.2109 6.30628 21.2109 7.49976ZM10.6149 13.9198C10.0146 13.7321 9.39619 13.6079 8.76994 13.5493C8.418 13.5149 8.06455 13.4984 7.71094 13.4998C1.71094 13.4998 0.210938 17.9998 0.210938 19.4998C0.210938 20.4998 0.710937 20.9998 1.71094 20.9998H8.03494C7.81267 20.5314 7.70178 20.0181 7.71094 19.4998C7.71094 17.9848 8.27644 16.4368 9.34594 15.1438C9.71044 14.7028 10.1349 14.2903 10.6149 13.9198ZM7.59094 14.9998C6.70372 16.3339 6.2242 17.8976 6.21094 19.4998H1.71094C1.71094 19.1098 1.95694 17.9548 2.85094 16.9138C3.66844 15.9598 5.08894 15.0298 7.59094 15.0013V14.9998ZM2.46094 8.24976C2.46094 7.05628 2.93504 5.91169 3.77896 5.06778C4.62287 4.22386 5.76746 3.74976 6.96094 3.74976C8.15441 3.74976 9.299 4.22386 10.1429 5.06778C10.9868 5.91169 11.4609 7.05628 11.4609 8.24976C11.4609 9.44323 10.9868 10.5878 10.1429 11.4317C9.299 12.2757 8.15441 12.7498 6.96094 12.7498C5.76746 12.7498 4.62287 12.2757 3.77896 11.4317C2.93504 10.5878 2.46094 9.44323 2.46094 8.24976ZM6.96094 5.24976C6.16529 5.24976 5.40223 5.56583 4.83962 6.12844C4.27701 6.69104 3.96094 7.45411 3.96094 8.24976C3.96094 9.04541 4.27701 9.80847 4.83962 10.3711C5.40223 10.9337 6.16529 11.2498 6.96094 11.2498C7.75659 11.2498 8.51965 10.9337 9.08226 10.3711C9.64487 9.80847 9.96094 9.04541 9.96094 8.24976C9.96094 7.45411 9.64487 6.69104 9.08226 6.12844C8.51965 5.56583 7.75659 5.24976 6.96094 5.24976Z" fill="black"/>
</g>
<defs>
<clipPath id="clip0_284_5645">
<rect width="24" height="24" fill="white" transform="translate(0.210938 -0.000244141)"/>
</clipPath>
</defs>
</svg>
