<svg width="19" height="19" viewBox="0 0 19 19" fill="none" xmlns="http://www.w3.org/2000/svg">
<path d="M14.9033 12.3762L13.5383 11.4012C13.7633 10.5912 13.7783 9.71372 13.5383 8.83622L14.9033 7.87622L13.8158 6.00122L12.2933 6.69122C11.7008 6.09122 10.9508 5.62622 10.0733 5.40872L9.92325 3.75122H7.74825L7.59825 5.40872C6.72075 5.62622 5.97075 6.09122 5.37825 6.69122L3.85575 6.00122L2.76825 7.87622L4.13325 8.83622C3.89325 9.71372 3.90825 10.5912 4.13325 11.4012L2.76825 12.3762L3.85575 14.2512L5.37825 13.5537C5.97075 14.1462 6.72075 14.5962 7.59825 14.8287L7.74825 16.5012H9.92325L10.0733 14.8287C10.9508 14.5962 11.7008 14.1462 12.2933 13.5537L13.8158 14.2512L14.9033 12.3762ZM10.3358 3.00122C10.5383 3.00122 10.7108 3.15122 10.7108 3.34622L10.8458 4.87622C11.4158 5.08622 11.9258 5.39372 12.3833 5.76122L13.7708 5.10872C13.9433 5.01872 14.1608 5.07872 14.2658 5.25122L15.7658 7.87622C15.8708 8.03372 15.8108 8.25122 15.6458 8.36372L14.3933 9.24122C14.4908 9.84122 14.4833 10.4337 14.3933 11.0112L15.6458 11.8887C15.8108 12.0012 15.8708 12.2187 15.7658 12.3762L14.2658 15.0012C14.1608 15.1587 13.9433 15.2187 13.7708 15.1287L12.3833 14.4837C11.9258 14.8512 11.4158 15.1512 10.8458 15.3762L10.7108 16.8762C10.7108 17.0937 10.5383 17.2512 10.3358 17.2512H7.33575C7.2363 17.2512 7.14091 17.2117 7.07059 17.1414C7.00026 17.0711 6.96075 16.9757 6.96075 16.8762L6.82575 15.3762C6.25575 15.1512 5.74575 14.8512 5.28825 14.4837L3.90075 15.1287C3.72825 15.2187 3.51075 15.1587 3.40575 15.0012L1.90575 12.3762C1.80075 12.2187 1.86075 12.0012 2.02575 11.8887L3.27825 11.0112C3.18825 10.4337 3.18075 9.84122 3.27825 9.24122L2.02575 8.36372C1.86075 8.25122 1.80075 8.03372 1.90575 7.87622L3.40575 5.25122C3.51075 5.07872 3.72825 5.01872 3.90075 5.10872L5.28825 5.76122C5.74575 5.39372 6.25575 5.08622 6.82575 4.87622L6.96075 3.34622C6.96075 3.15122 7.13325 3.00122 7.33575 3.00122H10.3358ZM8.83575 7.50122C9.53195 7.50122 10.1996 7.77778 10.6919 8.27007C11.1842 8.76235 11.4608 9.43003 11.4608 10.1262C11.4608 10.8224 11.1842 11.4901 10.6919 11.9824C10.1996 12.4747 9.53195 12.7512 8.83575 12.7512C8.13956 12.7512 7.47188 12.4747 6.9796 11.9824C6.48731 11.4901 6.21075 10.8224 6.21075 10.1262C6.21075 9.43003 6.48731 8.76235 6.9796 8.27007C7.47188 7.77778 8.13956 7.50122 8.83575 7.50122ZM8.83575 8.25122C8.33847 8.25122 7.86156 8.44876 7.50993 8.8004C7.1583 9.15203 6.96075 9.62894 6.96075 10.1262C6.96075 10.6235 7.1583 11.1004 7.50993 11.452C7.86156 11.8037 8.33847 12.0012 8.83575 12.0012C9.33303 12.0012 9.80995 11.8037 10.1616 11.452C10.5132 11.1004 10.7108 10.6235 10.7108 10.1262C10.7108 9.62894 10.5132 9.15203 10.1616 8.8004C9.80995 8.44876 9.33303 8.25122 8.83575 8.25122Z" fill="black"/>
</svg>
