<svg width="19" height="19" viewBox="0 0 19 19" fill="none" xmlns="http://www.w3.org/2000/svg">
<g clip-path="url(#clip0_284_5744)">
<path d="M14.3438 6.15808C14.2408 7.58789 13.1802 8.68933 12.0235 8.68933C10.8669 8.68933 9.80446 7.58824 9.70321 6.15808C9.59774 4.67062 10.6303 3.62683 12.0235 3.62683C13.4168 3.62683 14.4493 4.69769 14.3438 6.15808Z" stroke="black" stroke-linecap="round" stroke-linejoin="round"/>
<path d="M12.0233 10.9393C9.73217 10.9393 7.52892 12.0773 6.97697 14.2936C6.90385 14.5868 7.08771 14.8768 7.389 14.8768H16.6579C16.9592 14.8768 17.142 14.5868 17.07 14.2936C16.518 12.0418 14.3148 10.9393 12.0233 10.9393Z" stroke="black" stroke-miterlimit="10"/>
<path d="M7.24216 6.78878C7.15989 7.93066 6.30278 8.82996 5.37888 8.82996C4.45497 8.82996 3.59645 7.93101 3.51559 6.78878C3.43157 5.60085 4.26583 4.75183 5.37888 4.75183C6.49192 4.75183 7.32618 5.62265 7.24216 6.78878Z" stroke="black" stroke-linecap="round" stroke-linejoin="round"/>
<path d="M7.45298 11.0097C6.81841 10.7189 6.1195 10.6071 5.37876 10.6071C3.55064 10.6071 1.78931 11.5159 1.3481 13.286C1.29009 13.5202 1.43704 13.7518 1.67751 13.7518H5.62486" stroke="black" stroke-miterlimit="10" stroke-linecap="round"/>
</g>
<defs>
<clipPath id="clip0_284_5744">
<rect width="18" height="18" fill="white" transform="translate(0.210938 0.251831)"/>
</clipPath>
</defs>
</svg>
